<svg width="15" height="14" viewBox="0 0 15 14" fill="none" xmlns="http://www.w3.org/2000/svg">
<g opacity="0.9" clip-path="url(#clip0_696_52)">
<mask id="path-1-inside-1_696_52" fill="white">
<path d="M13.0979 13.0096H1.35496C0.605215 13.0096 0 12.3612 0 11.5579V2.8474C0 2.04411 0.605215 1.39566 1.35496 1.39566H13.0979C13.8477 1.39566 14.4529 2.04411 14.4529 2.8474V11.5579C14.4529 12.3612 13.8477 13.0096 13.0979 13.0096ZM1.35496 2.36349C1.10203 2.36349 0.903306 2.57641 0.903306 2.8474V11.5579C0.903306 11.8288 1.10203 12.0418 1.35496 12.0418H13.0979C13.3509 12.0418 13.5496 11.8288 13.5496 11.5579V2.8474C13.5496 2.57641 13.3509 2.36349 13.0979 2.36349H1.35496Z"/>
</mask>
<path d="M13.0979 11.5579H1.35496V14.4613H13.0979V11.5579ZM1.35496 11.5579C1.37938 11.5579 1.40449 11.5636 1.42517 11.573C1.44452 11.5817 1.45438 11.5909 1.45763 11.5944C1.46375 11.601 1.45174 11.5921 1.45174 11.5579H-1.45174C-1.45174 13.067 -0.289272 14.4613 1.35496 14.4613V11.5579ZM1.45174 11.5579V2.8474H-1.45174V11.5579H1.45174ZM1.45174 2.8474C1.45174 2.81311 1.46375 2.80429 1.45763 2.81085C1.45438 2.81433 1.44452 2.82354 1.42517 2.83229C1.40449 2.84164 1.37938 2.8474 1.35496 2.8474V-0.0560822C-0.289272 -0.0560822 -1.45174 1.33829 -1.45174 2.8474H1.45174ZM1.35496 2.8474H13.0979V-0.0560822H1.35496V2.8474ZM13.0979 2.8474C13.0735 2.8474 13.0484 2.84164 13.0277 2.83229C13.0084 2.82354 12.9985 2.81433 12.9953 2.81085C12.9892 2.80429 13.0012 2.81311 13.0012 2.8474H15.9046C15.9046 1.33829 14.7422 -0.0560822 13.0979 -0.0560822V2.8474ZM13.0012 2.8474V11.5579H15.9046V2.8474H13.0012ZM13.0012 11.5579C13.0012 11.5921 12.9892 11.601 12.9953 11.5944C12.9985 11.5909 13.0084 11.5817 13.0277 11.573C13.0484 11.5636 13.0735 11.5579 13.0979 11.5579V14.4613C14.7422 14.4613 15.9046 13.067 15.9046 11.5579H13.0012ZM1.35496 0.911746C0.207547 0.911746 -0.548436 1.8706 -0.548436 2.8474H2.35505C2.35505 3.28222 1.99652 3.81523 1.35496 3.81523V0.911746ZM-0.548436 2.8474V11.5579H2.35505V2.8474H-0.548436ZM-0.548436 11.5579C-0.548436 12.5347 0.207547 13.4935 1.35496 13.4935V10.59C1.99652 10.59 2.35505 11.123 2.35505 11.5579H-0.548436ZM1.35496 13.4935H13.0979V10.59H1.35496V13.4935ZM13.0979 13.4935C14.2454 13.4935 15.0013 12.5347 15.0013 11.5579H12.0979C12.0979 11.123 12.4564 10.59 13.0979 10.59V13.4935ZM15.0013 11.5579V2.8474H12.0979V11.5579H15.0013ZM15.0013 2.8474C15.0013 1.8706 14.2454 0.911746 13.0979 0.911746V3.81523C12.4564 3.81523 12.0979 3.28222 12.0979 2.8474H15.0013ZM13.0979 0.911746H1.35496V3.81523H13.0979V0.911746Z" fill="#C5A059" mask="url(#path-1-inside-1_696_52)"/>
<mask id="path-3-inside-2_696_52" fill="white">
<path d="M7.22547 9.10018C6.59315 9.10018 6.01504 8.82918 5.58145 8.33559L0.839091 2.93511C0.667463 2.74154 0.676496 2.43184 0.857157 2.24795C1.03782 2.06406 1.32688 2.07374 1.4985 2.26731L6.24086 7.66779C6.75575 8.25817 7.69519 8.25817 8.21007 7.66779L12.9524 2.27699C13.1241 2.08342 13.4131 2.07374 13.5938 2.25763C13.7744 2.44152 13.7835 2.75122 13.6118 2.94479L8.86949 8.34527C8.4359 8.83886 7.85778 9.10985 7.22547 9.10985V9.10018Z"/>
</mask>
<path d="M7.22547 9.10018H8.67721V7.64843H7.22547V9.10018ZM5.58145 8.33559L4.4906 9.29351L4.49076 9.29369L5.58145 8.33559ZM0.839091 2.93511L1.92995 1.97718L1.92533 1.97197L0.839091 2.93511ZM1.4985 2.26731L2.58937 1.30938L2.58475 1.30417L1.4985 2.26731ZM6.24086 7.66779L7.33497 6.71358L7.33171 6.70987L6.24086 7.66779ZM8.21007 7.66779L7.12006 6.7089L7.11597 6.71359L8.21007 7.66779ZM12.9524 2.27699L11.8662 1.31384L11.8624 1.3181L12.9524 2.27699ZM13.6118 2.94479L12.5256 1.98164L12.521 1.98687L13.6118 2.94479ZM8.86949 8.34527L9.96018 9.30337L9.96034 9.30319L8.86949 8.34527ZM7.22547 9.10985H5.77373V10.5616H7.22547V9.10985ZM7.22547 7.64843C7.03407 7.64843 6.84584 7.57523 6.67214 7.37749L4.49076 9.29369C5.18424 10.0831 6.15224 10.5519 7.22547 10.5519V7.64843ZM6.6723 7.37768L1.92994 1.97719L-0.251759 3.89302L4.4906 9.29351L6.6723 7.37768ZM1.92533 1.97197C2.26273 2.35249 2.24384 2.908 1.89274 3.26536L-0.178424 1.23054C-0.890845 1.95568 -0.927805 3.13059 -0.247153 3.89825L1.92533 1.97197ZM1.89274 3.26536C1.4728 3.6928 0.788034 3.65425 0.412261 3.23044L2.58475 1.30417C1.86572 0.493236 0.602841 0.435323 -0.178424 1.23054L1.89274 3.26536ZM0.407654 3.22522L5.15001 8.62571L7.33171 6.70987L2.58936 1.30939L0.407654 3.22522ZM5.14676 8.62199C6.24021 9.87576 8.21073 9.87576 9.30417 8.62199L7.11597 6.71359C7.15356 6.67049 7.19993 6.65883 7.22547 6.65883C7.25101 6.65883 7.29738 6.67049 7.33497 6.71359L5.14676 8.62199ZM9.30007 8.62668L14.0424 3.23587L11.8624 1.3181L7.12007 6.7089L9.30007 8.62668ZM14.0387 3.24012C13.6629 3.66393 12.9781 3.70248 12.5582 3.27504L14.6294 1.24022C13.8481 0.445001 12.5852 0.502914 11.8662 1.31385L14.0387 3.24012ZM12.5582 3.27504C12.2071 2.91767 12.1882 2.36217 12.5256 1.98165L14.6981 3.90792C15.3787 3.14027 15.3418 1.96536 14.6294 1.24022L12.5582 3.27504ZM12.521 1.98687L7.77864 7.38735L9.96034 9.30319L14.7027 3.9027L12.521 1.98687ZM7.7788 7.38717C7.6051 7.58491 7.41686 7.65811 7.22547 7.65811V10.5616C8.2987 10.5616 9.2667 10.0928 9.96018 9.30337L7.7788 7.38717ZM8.67721 9.10985V9.10018H5.77373V9.10985H8.67721Z" fill="#C5A059" mask="url(#path-3-inside-2_696_52)"/>
</g>
<defs>
<clipPath id="clip0_696_52">
<rect width="14.4529" height="13.5496" fill="white" transform="translate(0 0.427399)"/>
</clipPath>
</defs>
</svg>
