<svg width="16" height="17" viewBox="0 0 16 17" fill="none" xmlns="http://www.w3.org/2000/svg">
<g clip-path="url(#clip0_696_59)">
<path d="M12.474 6.51865C12.474 9.15052 7.59249 15.5029 7.59249 15.5029C7.59249 15.5029 2.71094 9.15052 2.71094 6.51865C2.71094 5.25718 3.22524 4.04738 4.14071 3.15538C5.05618 2.26339 6.29782 1.76227 7.59249 1.76227C8.88716 1.76227 10.1288 2.26339 11.0443 3.15538C11.9597 4.04738 12.474 5.25718 12.474 6.51865Z" stroke="#C5A059" stroke-width="1.25063" stroke-linecap="round" stroke-linejoin="round"/>
<path d="M7.59203 8.10476C8.4907 8.10476 9.21921 7.39493 9.21921 6.5193C9.21921 5.64367 8.4907 4.93384 7.59203 4.93384C6.69336 4.93384 5.96484 5.64367 5.96484 6.5193C5.96484 7.39493 6.69336 8.10476 7.59203 8.10476Z" stroke="#C5A059" stroke-width="1.25063" stroke-linecap="round" stroke-linejoin="round"/>
</g>
<defs>
<clipPath id="clip0_696_59">
<rect width="15.1871" height="16.3553" fill="white" transform="translate(0 0.457092)"/>
</clipPath>
</defs>
</svg>
