<svg width="18" height="18" viewBox="0 0 18 18" fill="none" xmlns="http://www.w3.org/2000/svg">
<g opacity="0.9">
<path d="M1.63599 6.95771C1.63599 3.14688 5.44681 3.14688 8.71323 3.14688C11.9797 3.14688 15.7905 3.14688 15.7905 6.95771C15.7905 11.3129 11.9797 6.4133 11.9797 6.4133H5.44681C5.44681 6.4133 1.63599 11.3129 1.63599 6.95771ZM5.99121 8.04651C5.99121 8.04651 3.2692 10.7685 3.2692 15.6682H14.1573C14.1573 10.7685 11.4352 8.04651 11.4352 8.04651H5.99121Z" stroke="#C5A059" stroke-width="0.967828" stroke-linecap="round" stroke-linejoin="round"/>
<path d="M8.71497 14.0353C9.91763 14.0353 10.8926 13.0604 10.8926 11.8577C10.8926 10.655 9.91763 9.68008 8.71497 9.68008C7.5123 9.68008 6.53735 10.655 6.53735 11.8577C6.53735 13.0604 7.5123 14.0353 8.71497 14.0353Z" stroke="#C5A059" stroke-width="0.967828" stroke-linecap="round" stroke-linejoin="round"/>
</g>
</svg>
